# xmcd
#
# Track frame offsets:
#	150
#	15860
#	35457
#	55311
#	71756
#	87112
#	104198
#	117407
#	132923
#	158558
#	177502
#	200911
#	227273
#	253955
#	271497
#
# Disc length: 3920 seconds
#
# Revision: 0
# Processed by: cddbd v1.5.2PL0 Copyright (c) Steve Scherf et al.
# Submitted via: EZCDAudioConverter 2.1.7.1
#
DISCID=d50f4e0f
DTITLE=V/A - Salsa Explosion! (Fania)
DYEAR=1900
DGENRE=
TTITLE0=Willie Colón - Che Che Colé
TTITLE1=Héctor Lavoe - El Todopoderoso
TTITLE2=Mongo Santamaria - O Mi Shango
TTITLE3=Tito Puente and Celia Cruz - Pachito Eché
TTITLE4=Joe Cuba Sextet - Do You Feel It (Tu Lo Sientes)
TTITLE5=Celia Cruz and Johnny Pacheco - Cúcala
TTITLE6=Fania All Stars - Mama Güela
TTITLE7=Ralfi Pagan - Brother, Where Are You?
TTITLE8=Eddie Palmieri - Bilongo
TTITLE9=Tito Puente and His Orchestra - Guaguancó Arsenio
TTITLE10=La Sonora Poncena - Bomba Carambomba
TTITLE11=Ray Barretto - El Nuevo Barretto
TTITLE12=Louie Ramirez - Ahora Es El Tiempo
TTITLE13=Rafi Val Y La Diferente - A Mi Nena
TTITLE14=Willie Colón - Todo Tiene Su Final
EXTD=
EXTT0=
EXTT1=
EXTT2=
EXTT3=
EXTT4=
EXTT5=
EXTT6=
EXTT7=
EXTT8=
EXTT9=
EXTT10=
EXTT11=
EXTT12=
EXTT13=
EXTT14=
PLAYORDER=
